<?xml version="1.0" standalone="no"?>
<!DOCTYPE svg PUBLIC "-//W3C//DTD SVG 20010904//EN"
 "http://www.w3.org/TR/2001/REC-SVG-20010904/DTD/svg10.dtd">
<svg version="1.0" xmlns="http://www.w3.org/2000/svg"
 width="512.000000pt" height="512.000000pt" viewBox="0 0 512.000000 512.000000"
 preserveAspectRatio="xMidYMid meet">

<g transform="translate(0.000000,512.000000) scale(0.100000,-0.100000)"
fill="#000000" stroke="none">
<path d="M2517 5109 c-43 -25 -47 -62 -47 -396 l-1 -318 -625 -374 c-344 -206
-629 -382 -635 -392 -28 -54 11 -129 68 -129 19 0 231 122 655 376 l628 377
628 -377 c424 -254 636 -376 655 -376 57 0 96 75 68 129 -6 10 -291 186 -635
392 l-625 374 -1 278 0 277 210 0 210 0 0 -85 0 -85 -132 0 c-146 0 -175 -8
-196 -54 -17 -33 -9 -69 20 -96 20 -19 35 -20 225 -20 273 0 253 -20 253 252
-1 212 -3 223 -47 246 -29 16 -650 16 -676 1z"/>
<path d="M1905 3555 l-25 -24 0 -289 c0 -375 -24 -345 273 -340 254 4 231 -27
235 321 2 149 0 282 -3 295 -3 12 -14 31 -25 42 -19 19 -34 20 -225 20 -205 0
-206 0 -230 -25z m315 -315 l0 -170 -85 0 -85 0 0 170 0 170 85 0 85 0 0 -170z"/>
<path d="M2760 3560 c-11 -11 -22 -30 -25 -42 -3 -13 -5 -146 -3 -295 4 -348
-19 -317 235 -321 206 -4 223 -2 253 30 19 21 20 34 20 310 l0 289 -25 24
c-24 25 -25 25 -230 25 -191 0 -206 -1 -225 -20z m310 -320 l0 -170 -85 0 -85
0 0 170 0 170 85 0 85 0 0 -170z"/>
<path d="M3609 3384 l-24 -26 -3 -1286 c-2 -922 0 -1298 8 -1325 19 -66 105
-83 146 -29 11 14 13 269 14 1334 l0 1317 -26 20 c-37 29 -85 27 -115 -5z"/>
<path d="M1414 3316 c-17 -8 -34 -21 -38 -31 -3 -9 -6 -587 -6 -1283 1 -1024
3 -1270 14 -1284 37 -50 118 -39 142 18 12 28 14 235 14 1267 0 877 -3 1243
-11 1266 -6 18 -24 38 -40 46 -34 18 -36 18 -75 1z"/>
<path d="M39 3227 c-38 -29 -39 -44 -39 -546 l0 -490 23 -26 c32 -38 92 -38
124 0 l23 26 0 355 0 354 475 0 c501 0 522 2 539 45 13 35 6 76 -19 100 l-24
25 -486 0 -485 0 0 59 c0 50 -4 62 -26 85 -29 28 -77 35 -105 13z"/>
<path d="M4976 3214 c-22 -23 -26 -35 -26 -85 l0 -59 -485 0 -486 0 -24 -25
c-25 -24 -32 -65 -19 -100 17 -43 38 -45 539 -45 l475 0 0 -1421 0 -1421 29
-29 c18 -17 40 -29 56 -29 16 0 38 12 56 29 l29 29 0 1557 c0 1164 -3 1562
-12 1578 -28 54 -89 63 -132 21z"/>
<path d="M543 2536 c-28 -24 -28 -25 -28 -146 0 -121 0 -122 28 -146 36 -31
77 -31 111 1 23 21 26 32 26 85 l0 60 84 0 85 0 3 -229 c3 -227 3 -230 27
-255 33 -35 83 -35 116 -1 l25 24 0 285 c0 156 -3 292 -6 301 -15 38 -55 45
-253 45 -186 0 -190 0 -218 -24z"/>
<path d="M1925 2548 c-44 -25 -44 -31 -45 -331 l0 -288 25 -24 c24 -25 25 -25
227 -25 144 1 208 4 219 13 36 28 39 51 39 332 l0 277 -29 29 -29 29 -194 0
c-126 -1 -200 -5 -213 -12z m295 -328 l0 -170 -85 0 -85 0 0 170 0 170 85 0
85 0 0 -170z"/>
<path d="M2759 2531 l-29 -29 0 -277 c0 -281 3 -304 39 -332 11 -9 75 -12 219
-13 202 0 203 0 227 25 l25 24 0 288 c-1 211 -4 292 -13 304 -27 35 -54 39
-247 39 l-192 0 -29 -29z m311 -311 l0 -170 -85 0 -85 0 0 170 0 170 85 0 85
0 0 -170z"/>
<path d="M4122 2447 c-22 -23 -22 -29 -22 -313 0 -276 1 -291 20 -312 28 -30
62 -34 262 -30 243 4 222 -25 226 311 3 285 1 318 -29 348 -18 18 -34 19 -227
19 -205 0 -209 0 -230 -23z m318 -317 l0 -170 -85 0 -85 0 0 170 0 170 85 0
85 0 0 -170z"/>
<path d="M370 2041 c-127 -39 -229 -192 -290 -435 -54 -215 -94 -630 -72 -741
31 -154 137 -279 275 -326 l52 -18 5 -236 5 -237 28 -24 c31 -26 57 -30 90
-12 45 23 46 32 47 275 l0 231 46 16 c117 40 224 141 266 249 55 146 12 653
-78 923 -41 123 -81 193 -148 259 -75 76 -147 100 -226 76z m95 -180 c101 -61
197 -426 212 -803 5 -137 4 -163 -12 -204 -70 -183 -305 -227 -430 -81 -55 64
-69 127 -61 272 23 428 122 781 230 825 29 12 27 12 61 -9z"/>
<path d="M1775 1533 c-61 -15 -84 -86 -45 -136 18 -22 30 -26 83 -29 l62 -3 3
-427 2 -428 -399 0 -400 0 -25 -22 c-28 -25 -34 -49 -23 -90 16 -61 -74 -58
1527 -58 1601 0 1511 -3 1527 58 11 41 5 65 -23 90 l-25 22 -400 0 -399 0 2
428 3 427 62 3 c53 3 65 7 83 29 28 36 26 84 -6 114 l-26 24 -781 1 c-430 1
-791 0 -802 -3z m695 -338 c0 -151 -2 -175 -15 -175 -27 0 -65 -47 -65 -78 0
-36 34 -82 61 -82 18 0 19 -9 19 -175 l0 -175 -210 0 -210 0 0 430 0 430 210
0 210 0 0 -175z m600 -255 l0 -430 -210 0 -210 0 0 175 c0 166 1 175 19 175
27 0 61 46 61 82 0 31 -38 78 -65 78 -13 0 -15 24 -15 175 l0 175 210 0 210 0
0 -430z"/>
<path d="M4125 1425 l-25 -24 0 -291 0 -291 25 -24 c24 -25 25 -25 228 -25
l204 0 24 26 24 26 0 290 0 290 -28 24 c-28 24 -31 24 -228 24 -199 0 -200 0
-224 -25z m315 -315 l0 -170 -85 0 -85 0 0 170 0 170 85 0 85 0 0 -170z"/>
<path d="M714 146 c-21 -18 -28 -32 -28 -61 0 -29 7 -43 28 -61 l27 -24 1819
0 1819 0 27 24 c39 33 39 89 0 122 l-27 24 -1819 0 -1819 0 -27 -24z"/>
</g>
</svg>
